<svg id="Capa_1" enable-background="new 0 0 512 512" height="512" viewBox="0 0 512 512" width="512" xmlns="http://www.w3.org/2000/svg"><g><g><g fill="#60b7ff"><path d="m448.5 73.901-33.285-60.939h-216.959c-11.911 0-21.567 9.656-21.567 21.567v385.609c0 11.911 9.656 21.567 21.567 21.567h256.331c11.911 0 21.567-9.656 21.567-21.566v-1.47h15.846v-316.42z"/><path d=""/></g><path d="m476.154 91.921v328.216c0 11.911-9.656 21.566-21.567 21.566h28.347c11.911 0 21.566-9.656 21.566-21.566v-317.89z" fill="#26a6fe"/><path d="m436.781 102.247h67.719l-89.285-89.285v67.719c0 11.91 9.655 21.566 21.566 21.566z" fill="#004281"/><g fill="#eaf6ff"><path d="m331.627 489.53c-.484.717-1.011 1.403-1.576 2.056.565-.653 1.092-1.339 1.576-2.056z"/><path d="m285.398 499.038c11.911 0 21.567-9.656 21.567-21.566v-.472h13.535v-317.418l-44.5-33.082-29.975-56.204h-216.959c-11.91 0-21.566 9.656-21.566 21.567v385.609c0 11.911 9.656 21.567 21.566 21.567z"/></g><path d="m306.964 131.235v28.346 317.89c0 11.911-9.656 21.566-21.567 21.566h28.346c11.911 0 21.567-9.656 21.567-21.566v-317.89z" fill="#d8ecfe"/><path d="m267.592 159.582h67.719l-89.285-89.285v67.719c-.001 11.91 9.655 21.566 21.566 21.566z" fill="#b3dafe"/></g><g><path d="m59.26 219.946h224.291c4.143 0 7.5-3.357 7.5-7.5s-3.357-7.5-7.5-7.5h-224.291c-4.143 0-7.5 3.357-7.5 7.5s3.357 7.5 7.5 7.5z"/><path d="m59.26 277.457h224.291c4.143 0 7.5-3.357 7.5-7.5s-3.357-7.5-7.5-7.5h-224.291c-4.143 0-7.5 3.357-7.5 7.5s3.357 7.5 7.5 7.5z"/><path d="m59.26 334.968h224.291c4.143 0 7.5-3.357 7.5-7.5s-3.357-7.5-7.5-7.5h-224.291c-4.143 0-7.5 3.357-7.5 7.5s3.357 7.5 7.5 7.5z"/><path d="m59.26 392.479h224.291c4.143 0 7.5-3.357 7.5-7.5s-3.357-7.5-7.5-7.5h-224.291c-4.143 0-7.5 3.357-7.5 7.5s3.357 7.5 7.5 7.5z"/><path d="m509.804 96.943-89.285-89.285c-1.338-1.337-3.253-2.196-5.304-2.196h-216.959c-16.027 0-29.066 13.039-29.066 29.066v28.268h-140.124c-16.027 0-29.066 13.04-29.066 29.067v54c0 4.143 3.357 7.5 7.5 7.5s7.5-3.357 7.5-7.5v-54c0-7.757 6.311-14.067 14.066-14.067 9.576 0 198.093.001 209.459.001v60.219c0 16.027 13.039 29.066 29.066 29.066h60.219v310.39c0 7.756-6.311 14.066-14.066 14.066h-284.678c-7.756 0-14.066-6.311-14.066-14.066v-296.609c0-4.143-3.357-7.5-7.5-7.5s-7.5 3.357-7.5 7.5v296.608c0 16.027 13.039 29.066 29.066 29.066h284.678c16.027 0 29.066-13.039 29.066-29.066v-28.269h28.157c4.143 0 7.5-3.357 7.5-7.5s-3.357-7.5-7.5-7.5h-28.157v-99.234h109.93c4.143 0 7.5-3.357 7.5-7.5s-3.357-7.5-7.5-7.5h-109.93v-42.511h109.93c4.143 0 7.5-3.357 7.5-7.5s-3.357-7.5-7.5-7.5h-109.93c0-4.737 0-38.32 0-42.511h109.93c4.143 0 7.5-3.357 7.5-7.5s-3.357-7.5-7.5-7.5h-109.93v-42.511h109.93c4.143 0 7.5-3.357 7.5-7.5s-3.357-7.5-7.5-7.5h-118.968l-82.443-82.444c-1.442-1.441-3.404-2.196-5.304-2.196h-61.836v-28.267c0-7.756 6.311-14.066 14.066-14.066h209.459v60.219c0 16.027 13.039 29.066 29.066 29.066h60.22v310.39c0 7.756-6.311 14.066-14.066 14.066h-76.966c-4.143 0-7.5 3.357-7.5 7.5s3.357 7.5 7.5 7.5h76.966c16.027 0 29.066-13.039 29.066-29.066v-317.89c0-1.885-.729-3.836-2.196-5.304zm-242.212 55.139c-7.756 0-14.066-6.311-14.066-14.066v-49.613l63.679 63.679zm169.189-57.335c-7.756 0-14.066-6.311-14.066-14.066v-49.613l63.679 63.679z"/></g></g></svg>